<?xml version='1.0' encoding='UTF-8'?>
<mxfile version="1.0" encoding="UTF-8"><diagram name="ArchiMate Model" id="archimate_diagram"><mxGraphModel dx="1050" dy="522" grid="1" gridSize="10"><root><mxCell id="0" /><mxCell id="1" parent="0" /><mxCell id="label_Motivation_Layer" value="Motivation Layer" style="text;html=1;align=center;verticalAlign=middle;resizable=0;points=[];" vertex="1" parent="1"><mxGeometry x="400.0" y="20.0" width="200" height="30" as="geometry" /></mxCell><mxCell id="elem_m1" value="Utilisateurs" style="html=1;outlineConnect=0;whiteSpace=wrap;fillColor=#CCCCFF;shape=mxgraph.archimate3.application;appType=role;archiType=oct;" vertex="1" parent="1"><mxGeometry x="218.54074010747456" y="300.0" width="120" height="60" as="geometry" /></mxCell><mxCell id="elem_m2" value="Collaboration efficace" style="html=1;outlineConnect=0;whiteSpace=wrap;fillColor=#CCCCFF;shape=mxgraph.archimate3.application;appType=driver;archiType=oct;" vertex="1" parent="1"><mxGeometry x="297.672597642463" y="100.0" width="120" height="60" as="geometry" /></mxCell><mxCell id="elem_m3" value="Améliorer la gestion de projets" style="html=1;outlineConnect=0;whiteSpace=wrap;fillColor=#CCCCFF;shape=mxgraph.archimate3.application;appType=goal;archiType=oct;" vertex="1" parent="1"><mxGeometry x="100.0" y="174.1867669888647" width="120" height="60" as="geometry" /></mxCell><mxCell id="elem_m4" value="Projets livrés à temps" style="html=1;outlineConnect=0;whiteSpace=wrap;fillColor=#CCCCFF;shape=mxgraph.archimate3.application;appType=outcome;archiType=oct;" vertex="1" parent="1"><mxGeometry x="900.0" y="132.17439764369936" width="120" height="60" as="geometry" /></mxCell><mxCell id="elem_m5" value="Intégration avec d'autres outils" style="html=1;outlineConnect=0;whiteSpace=wrap;fillColor=#CCCCFF;shape=mxgraph.archimate3.application;appType=requirement;archiType=square;" vertex="1" parent="1"><mxGeometry x="796.189981495548" y="275.49288654524344" width="120" height="60" as="geometry" /></mxCell><mxCell id="conn_elem_m2_elem_m3" style="html=1;shape=mxgraph.archimate3.relationship;archiType=influence;" edge="1" source="elem_m2" target="elem_m3" parent="1"><mxGeometry relative="1" as="geometry" /></mxCell><mxCell id="conn_elem_m3_elem_m4" style="html=1;shape=mxgraph.archimate3.relationship;archiType=assignment;" edge="1" source="elem_m3" target="elem_m4" parent="1"><mxGeometry relative="1" as="geometry" /></mxCell><mxCell id="conn_elem_m5_elem_m3" style="html=1;shape=mxgraph.archimate3.relationship;archiType=influence;" edge="1" source="elem_m5" target="elem_m3" parent="1"><mxGeometry relative="1" as="geometry" /></mxCell><mxCell id="label_Business_Layer" value="Business Layer" style="text;html=1;align=center;verticalAlign=middle;resizable=0;points=[];" vertex="1" parent="1"><mxGeometry x="500.0" y="620.0" width="200" height="30" as="geometry" /></mxCell><mxCell id="elem_b1" value="Chef de projet" style="html=1;outlineConnect=0;whiteSpace=wrap;fillColor=#ffff99;shape=mxgraph.archimate3.application;appType=actor;archiType=square;" vertex="1" parent="1"><mxGeometry x="729.6452962829214" y="850.0675389347798" width="120" height="60" as="geometry" /></mxCell><mxCell id="elem_b2" value="Membre de l'équipe" style="html=1;outlineConnect=0;whiteSpace=wrap;fillColor=#FFFFFF;shape=mxgraph.archimate3.rectangle;" vertex="1" parent="1"><mxGeometry x="628.7014387252318" y="740.4206361468895" width="120" height="60" as="geometry" /></mxCell><mxCell id="elem_b3" value="Création de projet" style="html=1;outlineConnect=0;whiteSpace=wrap;fillColor=#ffff99;shape=mxgraph.archimate3.application;appType=proc;archiType=rounded;" vertex="1" parent="1"><mxGeometry x="1100.0" y="775.0172976413451" width="120" height="60" as="geometry" /></mxCell><mxCell id="elem_b4" value="Assignation de tâches" style="html=1;outlineConnect=0;whiteSpace=wrap;fillColor=#ffff99;shape=mxgraph.archimate3.application;appType=proc;archiType=rounded;" vertex="1" parent="1"><mxGeometry x="330.1888462970512" y="700.0" width="120" height="60" as="geometry" /></mxCell><mxCell id="elem_b5" value="Tableau de bord analytique" style="html=1;outlineConnect=0;whiteSpace=wrap;fillColor=#ffff99;shape=mxgraph.archimate3.application;appType=serv;archiType=rounded;" vertex="1" parent="1"><mxGeometry x="100.0" y="801.6626497916741" width="120" height="60" as="geometry" /></mxCell><mxCell id="elem_b6" value="Notifications en temps réel" style="html=1;outlineConnect=0;whiteSpace=wrap;fillColor=#ffff99;shape=mxgraph.archimate3.application;appType=serv;archiType=rounded;" vertex="1" parent="1"><mxGeometry x="384.5201681844077" y="900.0" width="120" height="60" as="geometry" /></mxCell><mxCell id="conn_elem_b1_elem_b3" style="html=1;shape=mxgraph.archimate3.relationship;archiType=assignment;" edge="1" source="elem_b1" target="elem_b3" parent="1"><mxGeometry relative="1" as="geometry" /></mxCell><mxCell id="conn_elem_b2_elem_b4" style="html=1;shape=mxgraph.archimate3.relationship;archiType=assignment;" edge="1" source="elem_b2" target="elem_b4" parent="1"><mxGeometry relative="1" as="geometry" /></mxCell><mxCell id="conn_elem_b1_elem_b5" style="html=1;shape=mxgraph.archimate3.relationship;archiType=serving;" edge="1" source="elem_b1" target="elem_b5" parent="1"><mxGeometry relative="1" as="geometry" /></mxCell><mxCell id="conn_elem_b2_elem_b6" style="html=1;shape=mxgraph.archimate3.relationship;archiType=serving;" edge="1" source="elem_b2" target="elem_b6" parent="1"><mxGeometry relative="1" as="geometry" /></mxCell><mxCell id="label_Application_Layer" value="Application Layer" style="text;html=1;align=center;verticalAlign=middle;resizable=0;points=[];" vertex="1" parent="1"><mxGeometry x="400.0" y="1220.0" width="200" height="30" as="geometry" /></mxCell><mxCell id="elem_a1" value="Application SaaS TeamFlow" style="html=1;outlineConnect=0;whiteSpace=wrap;fillColor=#99ffff;shape=mxgraph.archimate3.application;appType=comp;archiType=square;" vertex="1" parent="1"><mxGeometry x="540.6529125424042" y="1430.6263388703928" width="120" height="60" as="geometry" /></mxCell><mxCell id="elem_a2" value="Gestion des projets" style="html=1;outlineConnect=0;whiteSpace=wrap;fillColor=#FFFFFF;shape=mxgraph.archimate3.rectangle;" vertex="1" parent="1"><mxGeometry x="900.0" y="1354.834139826553" width="120" height="60" as="geometry" /></mxCell><mxCell id="elem_a3" value="Interface utilisateur" style="html=1;outlineConnect=0;whiteSpace=wrap;fillColor=#99ffff;shape=mxgraph.archimate3.application;appType=interface;archiType=square;" vertex="1" parent="1"><mxGeometry x="616.3215186387612" y="1300.0" width="120" height="60" as="geometry" /></mxCell><mxCell id="elem_a4" value="Service de chat intégré" style="html=1;outlineConnect=0;whiteSpace=wrap;fillColor=#99ffff;shape=mxgraph.archimate3.application;appType=serv;archiType=rounded;" vertex="1" parent="1"><mxGeometry x="821.4320596684993" y="1500.0" width="120" height="60" as="geometry" /></mxCell><mxCell id="elem_a5" value="Données de projet" style="html=1;outlineConnect=0;whiteSpace=wrap;fillColor=#99ffff;shape=mxgraph.archimate3.application;appType=passive;archiType=square;" vertex="1" parent="1"><mxGeometry x="100.0" y="1369.444510142076" width="120" height="60" as="geometry" /></mxCell><mxCell id="conn_elem_a1_elem_a2" style="html=1;shape=mxgraph.archimate3.relationship;archiType=association;" edge="1" source="elem_a1" target="elem_a2" parent="1"><mxGeometry relative="1" as="geometry" /></mxCell><mxCell id="conn_elem_a1_elem_a3" style="html=1;shape=mxgraph.archimate3.relationship;archiType=association;" edge="1" source="elem_a1" target="elem_a3" parent="1"><mxGeometry relative="1" as="geometry" /></mxCell><mxCell id="conn_elem_a1_elem_a4" style="html=1;shape=mxgraph.archimate3.relationship;archiType=association;" edge="1" source="elem_a1" target="elem_a4" parent="1"><mxGeometry relative="1" as="geometry" /></mxCell><mxCell id="conn_elem_a2_elem_a5" style="html=1;shape=mxgraph.archimate3.relationship;archiType=access;" edge="1" source="elem_a2" target="elem_a5" parent="1"><mxGeometry relative="1" as="geometry" /></mxCell><mxCell id="label_Technology_Layer" value="Technology Layer" style="text;html=1;align=center;verticalAlign=middle;resizable=0;points=[];" vertex="1" parent="1"><mxGeometry x="453.8942321090194" y="1820.0" width="200" height="30" as="geometry" /></mxCell><mxCell id="elem_t1" value="Serveur cloud" style="html=1;outlineConnect=0;whiteSpace=wrap;fillColor=#AFFFAF;shape=mxgraph.archimate3.application;appType=node;archiType=square;" vertex="1" parent="1"><mxGeometry x="342.33046867096783" y="1900.0" width="120" height="60" as="geometry" /></mxCell><mxCell id="elem_t2" value="Service de sauvegarde" style="html=1;outlineConnect=0;whiteSpace=wrap;fillColor=#AFFFAF;shape=mxgraph.archimate3.application;appType=serv;archiType=rounded;" vertex="1" parent="1"><mxGeometry x="207.7884642180387" y="2091.6318910480663" width="120" height="60" as="geometry" /></mxCell><mxCell id="elem_t3" value="Réseau de communication" style="html=1;outlineConnect=0;whiteSpace=wrap;fillColor=#AFFFAF;shape=mxgraph.archimate3.application;appType=netw;archiType=square;" vertex="1" parent="1"><mxGeometry x="900.0" y="1966.2892796611322" width="120" height="60" as="geometry" /></mxCell><mxCell id="conn_elem_t1_elem_t2" style="html=1;shape=mxgraph.archimate3.relationship;archiType=serving;" edge="1" source="elem_t1" target="elem_t2" parent="1"><mxGeometry relative="1" as="geometry" /></mxCell><mxCell id="conn_elem_t1_elem_a1" style="html=1;shape=mxgraph.archimate3.relationship;archiType=serving;" edge="1" source="elem_t1" target="elem_a1" parent="1"><mxGeometry relative="1" as="geometry" /></mxCell><mxCell id="conn_elem_t3_elem_a4" style="html=1;shape=mxgraph.archimate3.relationship;archiType=serving;" edge="1" source="elem_t3" target="elem_a4" parent="1"><mxGeometry relative="1" as="geometry" /></mxCell></root></mxGraphModel></diagram></mxfile>